<svg xmlns="http://www.w3.org/2000/svg" viewBox="0 0 36.55 27.5"><defs><style>.cls-1{fill:#daa51f;}.cls-1,.cls-2,.cls-3,.cls-4{stroke:#000;stroke-linecap:round;stroke-linejoin:bevel;}.cls-1,.cls-4{stroke-width:1.5px;}.cls-2{fill:none;}.cls-3,.cls-4{fill:#faf11d;}</style></defs><title>Asset 6</title><g id="Layer_2" data-name="Layer 2"><g id="Layer_3" data-name="Layer 3"><circle class="cls-1" cx="18.46" cy="13.75" r="13"/><path class="cls-2" d="M27.15,8.94a1.06,1.06,0,0,0-1.35-.48,3.38,3.38,0,0,0-1.23,1c-.1.1-.19.3-.08.39"/><path class="cls-3" d="M28.76,12.13c-.12-.47.42-.79.84-.85a9.78,9.78,0,0,1,6,1,.67.67,0,0,1,.4.39.78.78,0,0,1-.19.6c-1.52,2.14-4.09,2.7-6.44,3.12"/><path class="cls-4" d="M9.29,15.13c1.27.56,1.83,3.66,6,2.17A4.06,4.06,0,0,0,17,16.22a4.26,4.26,0,0,0,1-2.32,10,10,0,0,0-.08-2.56A8.7,8.7,0,0,0,17,8.2,7.73,7.73,0,0,0,12.4,5,11.44,11.44,0,0,0,6,4.74a7.52,7.52,0,0,0-4.89,4A2.71,2.71,0,0,0,.8,10.5a2.24,2.24,0,0,0,2.14,1.56,2.25,2.25,0,0,0,1.66-.91,1.82,1.82,0,0,0-.59.78,2.85,2.85,0,0,0-.11,2,2.18,2.18,0,0,0,1.41,1.41,3.22,3.22,0,0,0,2.13-.26,4.63,4.63,0,0,0,2.63-2.39"/></g></g></svg>