<svg xmlns="http://www.w3.org/2000/svg" viewBox="0 0 254.33 598.15"><defs><style>.cls-1{fill:#f6a312;}.cls-2{fill:#595959;}.cls-3{fill:#daa51f;}.cls-3,.cls-4,.cls-5,.cls-6{stroke:#000;stroke-linecap:round;stroke-linejoin:bevel;}.cls-3,.cls-6{stroke-width:1.5px;}.cls-4{fill:none;}.cls-5,.cls-6{fill:#faf11d;}</style></defs><title>Asset 10</title><g id="Layer_2" data-name="Layer 2"><g id="Layer_4" data-name="Layer 4"><circle class="cls-1" cx="228.16" cy="228.82" r="26"/><polygon class="cls-2" points="242.8 12.84 230.6 181.34 227.98 181.34 225.9 181.34 213.7 12.84 211.74 12.97 223.93 181.34 219.01 181.34 219.01 189.25 223.47 204.6 227.98 204.6 232.48 204.6 236.95 189.25 236.95 181.34 232.57 181.34 244.77 12.97 242.8 12.84"/><rect class="cls-2" x="202.16" width="52" height="12.27"/><path class="cls-2" d="M202.33,343.76V598.15h52V343.76Zm5.41,8.1,17.87,19.82-17.87,19.83Zm1.51-3.71h37.59L228,369Zm.86,46.12L228,374.38,246,394.27Zm36.16,4.38L228,418.86l-18.22-20.21Zm-38.53,3.08,17.87,19.83-17.87,19.82Zm2.37,42.41L228,424.25,246,444.14Zm36.16,4.38L228,468.74l-18.22-20.22Zm-38.53,3.08,17.87,19.83-17.87,19.83ZM210.11,494,228,474.12,246,494Zm36.16,4.38L228,518.61,209.82,498.4Zm-38.53,3.08,17.87,19.82-17.87,19.83Zm2.37,42.41L228,524,246,543.89Zm36.16,4.38L228,568.48l-18.22-20.21Zm-38.53,3.08,17.87,19.83L207.74,591ZM228,573.87,246,593.76H210.11Zm2.43-2.69,18.44-20.46v40.91Zm0-49.88,18.44-20.45v40.91Zm0-49.87L248.91,451v40.9Zm0-49.87,18.44-20.46V442Zm0-49.88,18.44-20.45v40.91Z"/><path class="cls-3" d="M31.57,262.74c13.29,0,24.06,9.89,24.06,22.1S44.86,307,31.57,307s-24-9.9-24-22.11,10.77-22.1,24.05-22.1"/><path class="cls-4" d="M46,276.66a1.73,1.73,0,0,0-2.24-.82,5.87,5.87,0,0,0-2,1.77c-.15.18-.31.51-.13.67"/><path class="cls-5" d="M48.66,282.09c-.21-.8.7-1.34,1.4-1.46a16,16,0,0,1,10,1.64,1.1,1.1,0,0,1,.66.67,1.33,1.33,0,0,1-.31,1c-2.52,3.63-6.78,4.58-10.68,5.3"/><path class="cls-6" d="M16.34,287.18c2.32,1,3.35,6.24,11,3.69a7.45,7.45,0,0,0,3-1.82,7,7,0,0,0,1.81-4,15.88,15.88,0,0,0-.16-4.35,13.69,13.69,0,0,0-1.68-5.33c-1.73-2.8-5-4.48-8.31-5.45a22.29,22.29,0,0,0-11.79-.44,13.48,13.48,0,0,0-8.92,6.87,4.44,4.44,0,0,0-.48,2.93A4.06,4.06,0,0,0,4.75,282c1.73,0,3.51-1.87,3-1.55a3,3,0,0,0-1.06,1.33,4.54,4.54,0,0,0-.21,3.45,3.94,3.94,0,0,0,2.58,2.4,6.21,6.21,0,0,0,3.88-.45,8.26,8.26,0,0,0,4.81-4.07"/></g></g></svg>