<svg xmlns="http://www.w3.org/2000/svg" viewBox="0 0 243.33 598.14"><defs><style>.cls-1{fill:#f6a312;}.cls-2{fill:#595959;}.cls-3{fill:#2d2929;}.cls-4{fill:#daa51f;}.cls-4,.cls-5,.cls-6,.cls-7{stroke:#000;stroke-linecap:round;stroke-linejoin:bevel;}.cls-4,.cls-7{stroke-width:1.5px;}.cls-5{fill:none;}.cls-6,.cls-7{fill:#faf11d;}</style></defs><title>Asset 9</title><g id="Layer_2" data-name="Layer 2"><g id="Layer_4" data-name="Layer 4"><circle class="cls-1" cx="217.16" cy="228.82" r="26"/><polygon class="cls-2" points="221.49 182.54 219.53 182.42 231.8 12.84 233.77 12.97 221.49 182.54"/><polygon class="cls-2" points="213.01 182.54 214.98 182.42 202.7 12.84 200.74 12.97 213.01 182.54"/><polygon class="cls-3" points="216.98 181.34 225.95 181.34 225.95 189.25 221.48 204.6 216.98 204.6 212.47 204.6 208.01 189.25 208.01 181.34 216.98 181.34"/><rect class="cls-3" x="191.16" width="52" height="12.27"/><rect class="cls-2" x="191.33" y="348.14" width="5.41" height="250"/><rect class="cls-2" x="237.91" y="348.14" width="5.41" height="250"/><rect class="cls-2" x="195.19" y="344.39" width="44.14" height="4.38"/><rect class="cls-2" x="195.19" y="394.27" width="44.14" height="4.38"/><rect class="cls-2" x="195.19" y="444.14" width="44.14" height="4.38"/><rect class="cls-2" x="195.19" y="494.02" width="44.14" height="4.38"/><rect class="cls-2" x="195.19" y="543.89" width="44.14" height="4.38"/><rect class="cls-2" x="195.19" y="593.76" width="44.14" height="4.38"/><rect class="cls-2" x="215.24" y="339.52" width="3.61" height="64.33" transform="translate(304.72 -49.71) rotate(42.04)"/><rect class="cls-2" x="215.24" y="339.52" width="3.61" height="64.33" transform="translate(627.13 502.41) rotate(137.96)"/><rect class="cls-2" x="215.24" y="389.39" width="3.61" height="64.33" transform="translate(338.12 -36.87) rotate(42.04)"/><rect class="cls-2" x="215.24" y="389.39" width="3.61" height="64.33" transform="translate(660.52 589.32) rotate(137.96)"/><rect class="cls-2" x="215.24" y="439.27" width="3.61" height="64.33" transform="translate(371.51 -24.04) rotate(42.04)"/><rect class="cls-2" x="215.24" y="439.27" width="3.61" height="64.33" transform="translate(693.92 676.24) rotate(137.96)"/><rect class="cls-2" x="215.24" y="489.14" width="3.61" height="64.33" transform="translate(404.92 -11.21) rotate(42.04)"/><rect class="cls-2" x="215.24" y="489.14" width="3.61" height="64.33" transform="translate(727.31 763.15) rotate(137.96)"/><rect class="cls-2" x="215.24" y="539.01" width="3.61" height="64.33" transform="translate(438.31 1.62) rotate(42.04)"/><rect class="cls-2" x="215.24" y="539.01" width="3.61" height="64.33" transform="translate(760.71 850.07) rotate(137.96)"/><path class="cls-4" d="M20.27,270.84c8.41,0,15.24,6.27,15.24,14s-6.83,14-15.24,14S5,292.57,5,284.84s6.82-14,15.23-14"/><path class="cls-5" d="M29.4,279.66a1.1,1.1,0,0,0-1.42-.52,3.6,3.6,0,0,0-1.29,1.12c-.1.12-.2.33-.09.42"/><path class="cls-6" d="M31.09,283.1c-.13-.51.44-.85.89-.92a10.1,10.1,0,0,1,6.34,1,.71.71,0,0,1,.42.43.84.84,0,0,1-.2.64c-1.59,2.3-4.29,2.91-6.76,3.36"/><path class="cls-7" d="M10.62,286.32c1.48.61,2.12,3.95,7,2.34a4.75,4.75,0,0,0,1.92-1.15A4.46,4.46,0,0,0,20.65,285a9.49,9.49,0,0,0-.1-2.76,8.69,8.69,0,0,0-1.06-3.37,8.92,8.92,0,0,0-5.26-3.45,14.16,14.16,0,0,0-7.47-.29,8.58,8.58,0,0,0-5.65,4.36,2.8,2.8,0,0,0-.3,1.85A2.55,2.55,0,0,0,3.28,283a2.62,2.62,0,0,0,1.92-1,1.91,1.91,0,0,0-.68.84,2.92,2.92,0,0,0-.13,2.19A2.49,2.49,0,0,0,6,286.59a3.93,3.93,0,0,0,2.45-.29,5.23,5.23,0,0,0,3-2.57"/></g></g></svg>